HIERARCHY
ROOT joint_Root
{
  OFFSET 0 0 0
  CHANNELS 6 Xposition Yposition Zposition Zrotation Xrotation Yrotation
  JOINT Hips
  {
    OFFSET 0.847027 93.984 -452.225
    CHANNELS 6 Xposition Yposition Zposition Zrotation Xrotation Yrotation
    JOINT Spine
    {
      OFFSET 15.7357 0 0
      CHANNELS 6 Xposition Yposition Zposition Zrotation Xrotation Yrotation
      JOINT Chest
      {
        OFFSET 8.98455 -0.406207 0
        CHANNELS 6 Xposition Yposition Zposition Zrotation Xrotation Yrotation
        JOINT Neck
        {
          OFFSET 16.3773 0 0
          CHANNELS 6 Xposition Yposition Zposition Zrotation Xrotation Yrotation
          JOINT Head
          {
            OFFSET 6.45672 0 0
            CHANNELS 6 Xposition Yposition Zposition Zrotation Xrotation Yrotation
            End Site
            {
              OFFSET 0 0 0
            }
          }
        }
        JOINT Shoulder_L
        {
          OFFSET 12.9942 -0.242716 4.98039
          CHANNELS 6 Xposition Yposition Zposition Zrotation Xrotation Yrotation
          JOINT UpperArm_L
          {
            OFFSET 5.34809 0 0
            CHANNELS 6 Xposition Yposition Zposition Zrotation Xrotation Yrotation
            JOINT LowerArm_L
            {
              OFFSET 24.3286 1.87007e-05 0
              CHANNELS 6 Xposition Yposition Zposition Zrotation Xrotation Yrotation
              JOINT Hand_L
              {
                OFFSET 22.2916 0 0
                CHANNELS 6 Xposition Yposition Zposition Zrotation Xrotation Yrotation
                End Site
                {
                  OFFSET 0 0 0
                }
              }
            }
          }
        }
        JOINT Shoulder_R
        {
          OFFSET 12.9945 -0.242716 -4.98039
          CHANNELS 6 Xposition Yposition Zposition Zrotation Xrotation Yrotation
          JOINT UpperArm_R
          {
            OFFSET -5.34813 0 0
            CHANNELS 6 Xposition Yposition Zposition Zrotation Xrotation Yrotation
            JOINT LowerArm_R
            {
              OFFSET -24.3289 0.000322201 0
              CHANNELS 6 Xposition Yposition Zposition Zrotation Xrotation Yrotation
              JOINT Hand_R
              {
                OFFSET -22.2915 -0.000108084 0
                CHANNELS 6 Xposition Yposition Zposition Zrotation Xrotation Yrotation
                End Site
                {
                  OFFSET 0 0 0
                }
              }
            }
          }
        }
      }
    }
    JOINT UpperLeg_L
    {
      OFFSET -2.19248 -6.46944 0
      CHANNELS 6 Xposition Yposition Zposition Zrotation Xrotation Yrotation
      JOINT LowerLeg_L
      {
        OFFSET 39.0811 0 -1.23785e-05
        CHANNELS 6 Xposition Yposition Zposition Zrotation Xrotation Yrotation
        JOINT Foot_L
        {
          OFFSET 40.9854 0 -1.26872e-05
          CHANNELS 6 Xposition Yposition Zposition Zrotation Xrotation Yrotation
          JOINT Toes_L
          {
            OFFSET 11.7543 0 0
            CHANNELS 6 Xposition Yposition Zposition Zrotation Xrotation Yrotation
            End Site
            {
              OFFSET 0 0 0
            }
          }
        }
      }
    }
    JOINT UpperLeg_R
    {
      OFFSET -2.19251 6.46944 0
      CHANNELS 6 Xposition Yposition Zposition Zrotation Xrotation Yrotation
      JOINT LowerLeg_R
      {
        OFFSET -39.0811 -0.00228153 -0.0401928
        CHANNELS 6 Xposition Yposition Zposition Zrotation Xrotation Yrotation
        JOINT Foot_R
        {
          OFFSET -40.9854 0 0
          CHANNELS 6 Xposition Yposition Zposition Zrotation Xrotation Yrotation
          JOINT Toes_R
          {
            OFFSET -11.7543 0 0
            CHANNELS 6 Xposition Yposition Zposition Zrotation Xrotation Yrotation
            End Site
            {
              OFFSET 0 0 0
            }
          }
        }
      }
    }
  }
}
MOTION
Frames:	9
Frame Time:	0.0333333
0 0 0 0 0 -0 251.198 87.7486 -54.1268 80.3571 -61.7907 -9.60114 15.7357 5.1072e-06 -5.51765e-07 97.3646 82.4902 -100.109 8.98455 -0.406207 -4.3199e-07 7.18505 1.93218 -5.60489 16.3773 -1.3905e-06 -6.99897e-07 1.48329 14.6593 0.309328 6.45672 -1.25837e-06 -1.02172e-07 -3.60181 23.9976 1.61607 12.9942 -0.242716 4.98039 -91.127 3.23493 -85.7812 5.34809 -7.22636e-06 -6.2814e-07 -56.9662 13.3844 -8.29634 24.3286 1.87007e-05 4.90207e-06 0.0882842 0.130644 -34.0388 22.2916 -9.88446e-07 4.63217e-06 19.5506 5.62029 -12.6398 12.9945 -0.242716 -4.98039 88.2358 10.5554 -95.4557 -5.34813 -1.25947e-06 -3.79883e-06 -62.9985 8.76927 10.588 -24.3289 0.000322201 -8.65921e-06 3.33627 5.06491 -33.4447 -22.2915 -0.000108084 -4.47941e-06 7.1272 5.51621 -7.19996 -2.19248 -6.46944 -1.22534e-07 -172.385 -15.2019 -27.9823 39.0811 -6.73843e-06 -1.23785e-05 0.049443 -0.0358454 49.5937 40.9854 -6.48686e-06 -1.26872e-05 -2.45826 -2.99043 -70.4289 11.7543 -2.30145e-07 3.05095e-06 -0.00449922 0.00691934 -16.4533 -2.19251 6.46944 -1.45247e-06 174.763 27.9188 167.358 -39.0811 -0.00228153 -0.0401928 0.871447 -0.343297 67.6407 -40.9854 7.72618e-06 5.99936e-06 -16.2196 6.81466 -54.3421 -11.7543 -5.6619e-06 -5.58687e-06 0.309355 -0.365952 -20.0979 
0 0 0 0 0 -0 249.031 88.8617 -53.8053 79.472 -61.1906 -10.372 15.7357 5.1072e-06 -5.51765e-07 93.1273 82.6766 -95.4262 8.98455 -0.406207 -4.3199e-07 6.88 0.81361 -4.64182 16.3773 -1.3905e-06 -6.99897e-07 1.65558 14.7719 0.375446 6.45672 -1.25837e-06 -1.02172e-07 -3.01875 24.7974 1.2791 12.9942 -0.242716 4.98039 -90.9389 2.73972 -86.0764 5.34809 -7.22636e-06 -6.2814e-07 -55.8574 14.4006 -10.1614 24.3286 1.87007e-05 4.90208e-06 0.0658319 0.0861414 -37.4634 22.2916 -9.88446e-07 4.63217e-06 20.3391 5.61952 -12.5895 12.9945 -0.242716 -4.98039 88.1566 10.1356 -94.6352 -5.34813 -1.25947e-06 -3.79883e-06 -63.4331 8.13208 13.0179 -24.3289 0.000322201 -8.65921e-06 3.2349 4.81839 -33.9445 -22.2915 -0.000108084 -4.47941e-06 6.61061 5.51327 -7.07659 -2.19248 -6.46944 -1.22533e-07 -170.916 -15.1635 -24.4662 39.0811 -6.73843e-06 -1.23785e-05 0.0640687 -0.0542967 45.7905 40.9854 -6.48686e-06 -1.26872e-05 -3.23995 -2.29771 -69.9011 11.7543 -2.30145e-07 3.05095e-06 -0.00533084 0.00819952 -16.4304 -2.19251 6.46944 -1.45247e-06 174.708 29.7425 165.297 -39.0811 -0.00228153 -0.0401928 0.834482 -0.374112 65.103 -40.9854 7.72618e-06 5.99936e-06 -16.5926 7.75987 -54.3545 -11.7543 -5.6619e-06 -5.58687e-06 0.292725 -0.345094 -19.9016 
0 0 0 0 0 -0 246.996 89.7967 -53.5545 78.9602 -60.7258 -10.7595 15.7357 5.1072e-06 -5.51765e-07 89.402 82.6995 -91.2567 8.98455 -0.406207 -4.3199e-07 6.83457 -0.136871 -3.69721 16.3773 -1.3905e-06 -6.99897e-07 1.92083 14.8592 0.38193 6.45672 -1.25837e-06 -1.02172e-07 -2.56653 25.4817 0.782744 12.9942 -0.242716 4.98039 -90.7367 2.16753 -86.2226 5.34809 -7.22636e-06 -6.2814e-07 -54.4809 15.5469 -12.3247 24.3286 1.87007e-05 4.90207e-06 -0.438701 -0.507151 -40.8094 22.2916 -9.88446e-07 4.63217e-06 21.2053 5.61734 -12.4394 12.9945 -0.242716 -4.98039 88.0973 9.61828 -93.7544 -5.34813 -1.25947e-06 -3.79883e-06 -63.4527 7.73727 15.1047 -24.3289 0.000322201 -8.65921e-06 3.39299 4.88435 -34.8591 -22.2915 -0.000108084 -4.47941e-06 6.3999 5.5152 -7.15771 -2.19248 -6.46944 -1.22534e-07 -169.642 -15.4495 -21.0725 39.0811 -6.73843e-06 -1.23785e-05 0.0759821 -0.0747669 42.0475 40.9854 -6.48686e-06 -1.26872e-05 -3.92178 -1.35406 -69.1782 11.7543 -2.30145e-07 3.05095e-06 -0.000164614 0.00027563 -16.5724 -2.19251 6.46944 -1.45247e-06 174.67 31.4009 163.379 -39.0811 -0.00228153 -0.0401928 0.737178 -0.398357 60.9111 -40.9854 7.72618e-06 5.99936e-06 -16.6223 8.62453 -55.0271 -11.7543 -5.6619e-06 -5.58687e-06 0.273627 -0.321291 -19.6775 
0 0 0 0 0 -0 245.066 90.4274 -53.415 78.9416 -60.1642 -10.8337 15.7357 5.1072e-06 -5.51765e-07 86.0388 82.6355 -87.4817 8.98455 -0.406207 -4.3199e-07 6.91747 -1.00342 -2.82208 16.3773 -1.3905e-06 -6.99897e-07 2.25519 14.9067 0.377937 6.45672 -1.25837e-06 -1.02172e-07 -2.43379 26.0599 0.434956 12.9942 -0.242716 4.98039 -90.5555 1.62988 -86.1749 5.34809 -7.22636e-06 -6.2814e-07 -52.6086 16.7934 -14.9573 24.3286 1.87007e-05 4.90208e-06 -1.31235 -1.36638 -43.8433 22.2916 -9.88446e-07 4.63217e-06 21.2847 5.61767 -12.4605 12.9945 -0.242716 -4.98039 88.0291 9.1879 -92.8371 -5.34813 -1.25947e-06 -3.79883e-06 -63.0485 7.45592 16.929 -24.3289 0.000322201 -8.65921e-06 3.29879 4.53828 -36.082 -22.2915 -0.000108084 -4.47941e-06 6.27897 5.51833 -7.29135 -2.19248 -6.46944 -1.22534e-07 -168.65 -15.9306 -18.3931 39.0811 -6.73843e-06 -1.23785e-05 0.08564 -0.0943846 39.0189 40.9854 -6.48686e-06 -1.26872e-05 -4.15151 -0.283733 -68.4932 11.7543 -2.30145e-07 3.05095e-06 0.00992844 -0.0153455 -16.8518 -2.19251 6.46944 -1.45247e-06 174.662 33.1302 161.499 -39.0811 -0.00228153 -0.0401928 0.603435 -0.406575 55.3135 -40.9854 7.72618e-06 5.99936e-06 -16.6445 9.16723 -55.6999 -11.7543 -5.6619e-06 -5.58687e-06 0.283799 -0.333954 -19.7968 
0 0 0 0 0 -0 243.179 90.727 -53.3924 79.6329 -59.3483 -10.3426 15.7357 5.1072e-06 -5.51765e-07 82.8176 82.4401 -83.9318 8.98455 -0.406207 -4.3199e-07 7.22081 -1.87829 -2.10765 16.3773 -1.3905e-06 -6.99897e-07 2.49589 14.8483 0.346584 6.45672 -1.25837e-06 -1.02172e-07 -2.62944 26.5576 0.251367 12.9942 -0.242716 4.98039 -90.3407 0.983208 -85.8862 5.34809 -7.22636e-06 -6.2814e-07 -50.3769 17.9268 -18.2668 24.3286 1.87007e-05 4.90208e-06 -1.52006 -1.45595 -46.249 22.2916 -9.88446e-07 4.63217e-06 21.5267 5.61781 -12.4717 12.9945 -0.242716 -4.98039 87.9204 8.83667 -91.7001 -5.34813 -1.25947e-06 -3.79883e-06 -62.3853 7.33388 18.2725 -24.3289 0.000322201 -8.65921e-06 3.20171 4.18033 -37.5122 -22.2915 -0.000108084 -4.47941e-06 6.17989 5.521 -7.40453 -2.19248 -6.46944 -1.22533e-07 -167.926 -15.972 -16.3874 39.0811 -6.73843e-06 -1.23785e-05 0.0923555 -0.109512 36.8676 40.9854 -6.48686e-06 -1.26872e-05 -4.61082 0.687472 -68.1671 11.7543 -2.30145e-07 3.05095e-06 0.0159818 -0.0248134 -17.0208 -2.19251 6.46944 -1.45247e-06 174.65 34.5382 159.681 -39.0811 -0.00228153 -0.0401928 0.447278 -0.381472 48.7164 -40.9854 7.72618e-06 5.99936e-06 -15.8072 8.96283 -56.2538 -11.7543 -5.6619e-06 -5.58687e-06 0.282967 -0.3329 -19.787 
0 0 0 0 0 -0 241.265 90.7252 -53.5199 80.8178 -58.4027 -9.4726 15.7357 5.1072e-06 -5.51765e-07 80.5352 82.1706 -81.3718 8.98455 -0.406207 -4.3199e-07 7.66719 -2.5639 -1.4999 16.3773 -1.3905e-06 -6.99897e-07 2.77212 14.6795 0.328219 6.45672 -1.25837e-06 -1.02172e-07 -2.8645 26.797 -0.0503492 12.9942 -0.242716 4.98039 -90.1193 0.34136 -85.7479 5.34809 -7.22636e-06 -6.2814e-07 -48.0406 18.6408 -21.4936 24.3286 1.87007e-05 4.90208e-06 -0.499415 -0.439166 -48.7182 22.2916 -9.88446e-07 4.63217e-06 21.7893 5.61411 -12.2254 12.9945 -0.242716 -4.98039 87.8044 8.56657 -90.5664 -5.34813 -1.25947e-06 -3.79883e-06 -61.6069 6.68839 19.4469 -24.3289 0.000322201 -8.65921e-06 3.24948 4.00838 -39.0931 -22.2915 -0.000108084 -4.47941e-06 6.27478 5.52581 -7.61197 -2.19248 -6.46944 -1.22534e-07 -167.343 -15.7443 -15.0277 39.0811 -6.73843e-06 -1.23785e-05 0.099102 -0.121672 35.6563 40.9854 -6.48686e-06 -1.26872e-05 -5.23008 1.60181 -68.1481 11.7543 -2.30145e-07 3.05095e-06 0.0209648 -0.0326721 -17.1607 -2.19251 6.46944 -1.45247e-06 174.608 35.0988 158.115 -39.0811 -0.00228153 -0.0401928 0.28517 -0.312659 41.1966 -40.9854 7.72618e-06 5.99936e-06 -13.903 8.22631 -57.1082 -11.7543 -5.6619e-06 -5.58687e-06 0.26933 -0.315979 -19.6273 
0 0 0 0 0 -0 239.26 90.4326 -53.7905 82.6452 -57.5059 -8.14192 15.7357 5.1072e-06 -5.51765e-07 78.8769 81.9004 -79.5579 8.98455 -0.406207 -4.3199e-07 8.11963 -3.11345 -1.13981 16.3773 -1.3905e-06 -6.99897e-07 3.00788 14.4124 0.198215 6.45672 -1.25837e-06 -1.02172e-07 -3.05124 26.9376 -0.27041 12.9942 -0.242716 4.98039 -89.9504 -0.142266 -85.7808 5.34809 -7.22636e-06 -6.2814e-07 -45.7708 18.8811 -23.9881 24.3286 1.87007e-05 4.90208e-06 0.597936 0.476054 -51.4504 22.2916 -9.88446e-07 4.63217e-06 22.1436 5.61193 -12.083 12.9945 -0.242716 -4.98039 87.6899 8.43712 -89.6265 -5.34813 -1.25947e-06 -3.79883e-06 -60.8207 5.60299 20.4983 -24.3289 0.000322201 -8.65921e-06 3.0627 3.59582 -40.4787 -22.2915 -0.000108084 -4.47941e-06 6.27158 5.52664 -7.64798 -2.19248 -6.46944 -1.22534e-07 -167.013 -15.5038 -14.1459 39.0811 -6.73843e-06 -1.23785e-05 0.10488 -0.128808 35.2292 40.9854 -6.48686e-06 -1.26872e-05 -6.02768 2.60004 -68.5152 11.7543 -2.30145e-07 3.05095e-06 0.02451 -0.0382371 -17.2598 -2.19251 6.46944 -1.45247e-06 173.955 34.5999 157.088 -39.0811 -0.00228153 -0.0401928 0.159111 -0.232496 32.7146 -40.9854 7.72618e-06 5.99936e-06 -12.9933 6.92036 -56.5112 -11.7543 -5.6619e-06 -5.58687e-06 0.282091 -0.33181 -19.7768 
0 0 0 0 0 -0 237.103 89.8794 -54.2176 84.7684 -56.5776 -6.46915 15.7357 5.1072e-06 -5.51765e-07 77.7709 81.5643 -78.3917 8.98455 -0.406207 -4.3199e-07 8.71591 -3.56112 -0.969315 16.3773 -1.3905e-06 -6.99897e-07 3.14234 14.1134 0.116158 6.45672 -1.25837e-06 -1.02172e-07 -3.24461 26.8744 -0.512882 12.9942 -0.242716 4.98039 -89.841 -0.456842 -85.8105 5.34809 -7.22636e-06 -6.2814e-07 -43.6091 18.8089 -25.9121 24.3286 1.87007e-05 4.90208e-06 0.587388 0.425618 -54.075 22.2916 -9.88446e-07 4.63217e-06 22.2964 5.60952 -11.9286 12.9945 -0.242716 -4.98039 87.6037 8.30894 -88.8494 -5.34813 -1.25947e-06 -3.79883e-06 -60.3816 4.34806 21.1908 -24.3289 0.000322201 -8.65921e-06 2.84354 3.23097 -41.4009 -22.2915 -0.000108084 -4.47941e-06 6.42925 5.53131 -7.85357 -2.19248 -6.46944 -1.22533e-07 -166.618 -15.4569 -13.5528 39.0811 -6.73843e-06 -1.23785e-05 0.11139 -0.132074 35.6226 40.9854 -6.48686e-06 -1.26872e-05 -6.97921 3.99219 -69.1483 11.7543 -2.30145e-07 3.05095e-06 0.0285361 -0.0446568 -17.3739 -2.19251 6.46944 -1.45247e-06 172.742 33.3429 156.442 -39.0811 -0.00228153 -0.0401928 0.0804496 -0.159661 24.3256 -40.9854 7.72618e-06 5.99936e-06 -11.588 4.22406 -54.2596 -11.7543 -5.6619e-06 -5.58687e-06 0.290539 -0.342352 -19.8761 
0 0 0 0 0 -0 234.747 89.0422 -54.8436 87.0415 -55.4262 -4.73074 15.7357 5.1072e-06 -5.51764e-07 76.6777 81.2259 -77.2827 8.98455 -0.406207 -4.3199e-07 9.30586 -4.02922 -0.881336 16.3773 -1.3905e-06 -6.99897e-07 3.15288 13.7862 0.0452682 6.45672 -1.25837e-06 -1.02172e-07 -3.46627 26.608 -0.642925 12.9942 -0.242716 4.98039 -89.7604 -0.689938 -85.8479 5.34809 -7.22636e-06 -6.2814e-07 -42.0429 18.3474 -27.2057 24.3286 1.87007e-05 4.90208e-06 0.313207 0.208283 -56.2827 22.2916 -9.88446e-07 4.63217e-06 22.4745 5.60668 -11.7508 12.9945 -0.242716 -4.98039 87.5748 8.18253 -88.4279 -5.34813 -1.25947e-06 -3.79883e-06 -60.2876 2.93108 21.809 -24.3289 0.000322201 -8.65921e-06 2.58779 2.86734 -42.1094 -22.2915 -0.000108084 -4.47941e-06 6.74654 5.53527 -8.02934 -2.19248 -6.46944 -1.22533e-07 -166.126 -15.0331 -13.4105 39.0811 -6.73843e-06 -1.23785e-05 0.119166 -0.132951 36.7223 40.9854 -6.48686e-06 -1.26872e-05 -8.02897 5.32593 -70.013 11.7543 -2.30145e-07 3.05095e-06 0.0348201 -0.0546796 -17.5519 -2.19251 6.46944 -1.45247e-06 171.329 32.3903 155.744 -39.0811 -0.00228153 -0.0401928 0.0349917 -0.0906688 17.2843 -40.9854 7.72618e-06 5.99936e-06 -9.97205 0.522101 -53.1737 -11.7543 -5.6619e-06 -5.58687e-06 0.303541 -0.358621 -20.0289 
